<svg viewBox="0 0 431 80" fill="none" xmlns="http://www.w3.org/2000/svg">
<path d="M39.9263 75.88C38.0863 77.24 35.8063 78.28 33.0863 79C30.4463 79.64 27.6863 79.96 24.8063 79.96C17.0463 79.96 11.0863 78 6.92625 74.08C2.76625 70.16 0.686251 64.4 0.686251 56.8V0.159999H19.4063V15.88H35.3663V30.28H19.4063V56.56C19.4063 59.28 20.0863 61.4 21.4463 62.92C22.8063 64.36 24.7663 65.08 27.3263 65.08C30.2063 65.08 32.7663 64.28 35.0063 62.68L39.9263 75.88ZM115.539 14.44V79H97.7794V71.32C95.2994 74.12 92.3394 76.28 88.8994 77.8C85.4594 79.24 81.7394 79.96 77.7394 79.96C69.2594 79.96 62.5394 77.52 57.5794 72.64C52.6194 67.76 50.1394 60.52 50.1394 50.92V14.44H68.8594V48.16C68.8594 58.56 73.2194 63.76 81.9394 63.76C86.4194 63.76 90.0194 62.32 92.7394 59.44C95.4594 56.48 96.8194 52.12 96.8194 46.36V14.44H115.539ZM171.762 75.88C169.922 77.24 167.642 78.28 164.922 79C162.282 79.64 159.522 79.96 156.642 79.96C148.882 79.96 142.922 78 138.762 74.08C134.602 70.16 132.522 64.4 132.522 56.8V0.159999H151.242V15.88H167.202V30.28H151.242V56.56C151.242 59.28 151.922 61.4 153.282 62.92C154.642 64.36 156.602 65.08 159.162 65.08C162.042 65.08 164.602 64.28 166.842 62.68L171.762 75.88ZM221.215 75.88C219.375 77.24 217.095 78.28 214.375 79C211.735 79.64 208.975 79.96 206.095 79.96C198.335 79.96 192.375 78 188.215 74.08C184.055 70.16 181.975 64.4 181.975 56.8V0.159999H200.695V15.88H216.655V30.28H200.695V56.56C200.695 59.28 201.375 61.4 202.735 62.92C204.095 64.36 206.055 65.08 208.615 65.08C211.495 65.08 214.055 64.28 216.295 62.68L221.215 75.88ZM296.828 14.44V79H279.068V71.32C276.588 74.12 273.628 76.28 270.188 77.8C266.748 79.24 263.028 79.96 259.028 79.96C250.548 79.96 243.828 77.52 238.868 72.64C233.908 67.76 231.428 60.52 231.428 50.92V14.44H250.148V48.16C250.148 58.56 254.508 63.76 263.228 63.76C267.708 63.76 271.308 62.32 274.028 59.44C276.748 56.48 278.108 52.12 278.108 46.36V14.44H296.828ZM332.051 22.96C334.291 19.84 337.291 17.48 341.051 15.88C344.891 14.28 349.291 13.48 354.251 13.48V30.76C352.171 30.6 350.771 30.52 350.051 30.52C344.691 30.52 340.491 32.04 337.451 35.08C334.411 38.04 332.891 42.52 332.891 48.52V79H314.171V14.44H332.051V22.96ZM430.891 14.44V79H413.131V71.32C410.651 74.12 407.691 76.28 404.251 77.8C400.811 79.24 397.091 79.96 393.091 79.96C384.611 79.96 377.891 77.52 372.931 72.64C367.971 67.76 365.491 60.52 365.491 50.92V14.44H384.211V48.16C384.211 58.56 388.571 63.76 397.291 63.76C401.771 63.76 405.371 62.32 408.091 59.44C410.811 56.48 412.171 52.12 412.171 46.36V14.44H430.891Z" fill="#7A92F3"/>
</svg>
