<svg viewBox="0 0 106 34" xmlns="http://www.w3.org/2000/svg">
<path d="M11.732 26.272C11.3027 26.5893 10.7707 26.832 10.136 27C9.52 27.1493 8.86667 27.224 8.176 27.224C6.384 27.224 4.99333 26.7667 4.004 25.852C3.03333 24.9373 2.548 23.5933 2.548 21.82V15.632H0.224V12.272H2.548V8.604H6.916V12.272H10.668V15.632H6.916V21.764C6.916 22.3987 7.07467 22.8933 7.392 23.248C7.728 23.584 8.19467 23.752 8.792 23.752C9.48267 23.752 10.0707 23.5653 10.556 23.192L11.732 26.272ZM29.36 11.936V27H25.216V25.208C24.6373 25.8613 23.9466 26.3653 23.144 26.72C22.3413 27.056 21.4733 27.224 20.54 27.224C18.5613 27.224 16.9933 26.6547 15.836 25.516C14.6786 24.3773 14.1 22.688 14.1 20.448V11.936H18.468V19.804C18.468 22.2307 19.4853 23.444 21.52 23.444C22.5653 23.444 23.4053 23.108 24.04 22.436C24.6746 21.7453 24.992 20.728 24.992 19.384V11.936H29.36ZM43.1226 26.272C42.6933 26.5893 42.1613 26.832 41.5266 27C40.9106 27.1493 40.2573 27.224 39.5666 27.224C37.7746 27.224 36.384 26.7667 35.3946 25.852C34.424 24.9373 33.9386 23.5933 33.9386 21.82V15.632H31.6146V12.272H33.9386V8.604H38.3066V12.272H42.0586V15.632H38.3066V21.764C38.3066 22.3987 38.4653 22.8933 38.7826 23.248C39.1186 23.584 39.5853 23.752 40.1826 23.752C40.8733 23.752 41.4613 23.5653 41.9466 23.192L43.1226 26.272ZM54.9625 26.272C54.5331 26.5893 54.0011 26.832 53.3665 27C52.7505 27.1493 52.0971 27.224 51.4065 27.224C49.6145 27.224 48.2238 26.7667 47.2345 25.852C46.2638 24.9373 45.7785 23.5933 45.7785 21.82V15.632H43.4545V12.272H45.7785V8.604H50.1465V12.272H53.8985V15.632H50.1465V21.764C50.1465 22.3987 50.3051 22.8933 50.6225 23.248C50.9585 23.584 51.4251 23.752 52.0225 23.752C52.7131 23.752 53.3011 23.5653 53.7865 23.192L54.9625 26.272ZM72.5904 11.936V27H68.4464V25.208C67.8678 25.8613 67.1771 26.3653 66.3744 26.72C65.5718 27.056 64.7038 27.224 63.7704 27.224C61.7918 27.224 60.2238 26.6547 59.0664 25.516C57.9091 24.3773 57.3304 22.688 57.3304 20.448V11.936H61.6984V19.804C61.6984 22.2307 62.7158 23.444 64.7504 23.444C65.7958 23.444 66.6358 23.108 67.2704 22.436C67.9051 21.7453 68.2224 20.728 68.2224 19.384V11.936H72.5904ZM80.8091 13.924C81.3318 13.196 82.0318 12.6453 82.9091 12.272C83.8051 11.8987 84.8318 11.712 85.9891 11.712V15.744C85.5038 15.7067 85.1771 15.688 85.0091 15.688C83.7584 15.688 82.7784 16.0427 82.0691 16.752C81.3598 17.4427 81.0051 18.488 81.0051 19.888V27H76.6371V11.936H80.8091V13.924ZM103.872 11.936V27H99.7277V25.208C99.149 25.8613 98.4584 26.3653 97.6557 26.72C96.853 27.056 95.985 27.224 95.0517 27.224C93.073 27.224 91.505 26.6547 90.3477 25.516C89.1904 24.3773 88.6117 22.688 88.6117 20.448V11.936H92.9797V19.804C92.9797 22.2307 93.997 23.444 96.0317 23.444C97.077 23.444 97.917 23.108 98.5517 22.436C99.1864 21.7453 99.5037 20.728 99.5037 19.384V11.936H103.872Z"/>
</svg>
